<svg width="162" height="26" viewBox="0 0 162 26" fill="none" xmlns="http://www.w3.org/2000/svg">
<path d="M160.811 9.07776H158.198L157.872 6.188C157.858 6.06609 157.8 5.95351 157.708 5.87177C157.617 5.79003 157.498 5.74484 157.376 5.74483L154.466 5.74396C154.418 5.74394 154.371 5.75336 154.327 5.7717C154.282 5.79003 154.242 5.81691 154.208 5.85081C154.174 5.8847 154.148 5.92494 154.129 5.96923C154.111 6.01351 154.101 6.06098 154.101 6.10891V9.07776L154.127 12.1821V17.54C154.127 18.2201 154.203 18.837 154.356 19.3896C154.509 19.9424 154.759 20.4184 155.107 20.818C155.454 21.2184 155.917 21.5244 156.493 21.7366C157.07 21.9489 157.782 22.0556 158.631 22.0556C159.072 22.0556 159.513 22.0172 159.954 21.9409C160.269 21.8866 160.546 21.8255 160.783 21.7581C160.86 21.7357 160.927 21.6885 160.974 21.624C161.022 21.5594 161.046 21.4811 161.044 21.4011L161.006 19.0982C161.002 18.8692 160.792 18.7056 160.567 18.7489C160.306 18.7977 160.041 18.8227 159.776 18.8238C159.183 18.8238 158.771 18.6752 158.542 18.3768C158.313 18.0788 158.198 17.6318 158.198 17.0358V12.1821H160.811C160.908 12.1821 161.001 12.1437 161.069 12.0753C161.137 12.0069 161.176 11.9142 161.176 11.8175V9.44242C161.176 9.34572 161.137 9.25299 161.069 9.18461C161.001 9.11623 160.908 9.07779 160.811 9.07776H160.811ZM47.4895 10.2405C47.1247 9.75702 46.6456 9.36261 46.0518 9.05715C45.4747 8.76069 44.7777 8.60934 43.9613 8.60077L43.9637 8.59932C43.9507 8.59932 43.9383 8.5999 43.9254 8.60005C43.9131 8.60005 43.9012 8.59918 43.8887 8.59918C43.8436 8.59918 43.7995 8.60251 43.7548 8.60368C42.8126 8.6266 42.0069 8.80175 41.3413 9.13348C40.7333 9.43676 40.2421 9.76501 39.8655 10.1173L39.6197 9.3095C39.5885 9.20707 39.5252 9.11736 39.4392 9.05362C39.3531 8.98987 39.2489 8.95545 39.1418 8.95543H36.365C36.317 8.95541 36.2696 8.96483 36.2253 8.98315C36.181 9.00148 36.1408 9.02835 36.1069 9.06223C36.073 9.0961 36.0461 9.13633 36.0278 9.1806C36.0094 9.22487 36 9.27232 36 9.32024V21.2632C36 21.3112 36.0094 21.3586 36.0278 21.4029C36.0461 21.4471 36.073 21.4874 36.1069 21.5213C36.1408 21.5551 36.181 21.582 36.2253 21.6003C36.2696 21.6186 36.317 21.6281 36.365 21.6281H39.834C39.8819 21.6281 39.9294 21.6186 39.9737 21.6003C40.018 21.5819 40.0582 21.555 40.0921 21.5211C40.126 21.4872 40.1529 21.447 40.1712 21.4027C40.1896 21.3584 40.199 21.3109 40.199 21.2629V14.7573C40.199 14.4009 40.2454 14.0574 40.3388 13.7267C40.4319 13.3959 40.572 13.1032 40.7589 12.8488C40.9419 12.5972 41.1816 12.3923 41.4585 12.2508C41.7386 12.1068 42.0651 12.0346 42.4383 12.0346C42.8113 12.0346 43.1208 12.1068 43.367 12.2508C43.6077 12.3901 43.8057 12.5924 43.9398 12.836C44.0753 13.0823 44.1727 13.3665 44.2321 13.6884C44.2917 14.011 44.3213 14.3501 44.3213 14.7065V21.2632C44.3213 21.3112 44.3307 21.3586 44.3491 21.4029C44.3674 21.4471 44.3943 21.4874 44.4282 21.5213C44.4621 21.5551 44.5023 21.582 44.5466 21.6003C44.5909 21.6186 44.6383 21.6281 44.6863 21.6281H48.1553C48.2032 21.6281 48.2507 21.6186 48.295 21.6003C48.3392 21.582 48.3795 21.5551 48.4134 21.5213C48.4473 21.4874 48.4741 21.4471 48.4925 21.4029C48.5108 21.3586 48.5203 21.3112 48.5203 21.2632V13.7903C48.5203 13.1629 48.4396 12.535 48.2784 11.9071C48.117 11.2798 47.8541 10.7239 47.4895 10.2404V10.2405ZM78.8046 18.2435C78.4309 18.057 78.1173 17.8109 77.8631 17.5054C77.6084 17.2003 77.4176 16.8481 77.2902 16.4494C77.1646 16.0588 77.1003 15.651 77.0998 15.2407C77.0998 14.8335 77.1635 14.4353 77.2902 14.0446C77.4177 13.6547 77.6084 13.3113 77.8631 13.0142C78.1173 12.7175 78.4309 12.4758 78.8046 12.2889C79.1772 12.1025 79.6102 12.009 80.1024 12.009C80.5774 12.009 81.0011 12.1025 81.3748 12.2889C81.7477 12.4758 82.0655 12.7214 82.329 13.0268C82.5917 13.3323 82.7953 13.6801 82.94 14.0702C83.0838 14.4605 83.1562 14.8592 83.1562 15.2662C83.1562 15.6732 83.0838 16.0722 82.94 16.4622C82.7953 16.8526 82.5917 17.2003 82.329 17.5056C82.0655 17.8109 81.7476 18.057 81.3748 18.2435C81.0011 18.4304 80.5774 18.5235 80.1024 18.5235C79.6102 18.5235 79.1772 18.4304 78.8046 18.2435V18.2435ZM86.7864 4H83.3426C83.2459 4 83.1532 4.03842 83.0848 4.10681C83.0164 4.1752 82.978 4.26795 82.978 4.36467V10.3041H82.9272C82.5706 9.88023 82.0702 9.49002 81.4257 9.13348C80.7808 8.77737 79.992 8.59918 79.0592 8.59918C78.1433 8.59918 77.3161 8.77737 76.5778 9.13348C75.8401 9.48987 75.212 9.97324 74.6948 10.584C74.1771 11.1946 73.7789 11.9031 73.4988 12.7087C73.2189 13.5147 73.0789 14.3588 73.0789 15.2408C73.0789 16.1231 73.2147 16.9711 73.4861 17.7855C73.7574 18.5996 74.1517 19.3164 74.6694 19.9358C75.1868 20.5551 75.8186 21.0514 76.5652 21.4243C77.3116 21.7973 78.1597 21.9842 79.1099 21.9842C79.2245 21.9842 79.3381 21.9805 79.4512 21.974C80.4423 21.9527 81.2889 21.7701 81.9873 21.4218C82.5889 21.1218 83.0797 20.7982 83.4638 20.4519L83.7333 21.2825C83.7658 21.3829 83.8293 21.4704 83.9147 21.5325C84 21.5945 84.1029 21.6279 84.2084 21.6279H86.7864C86.8832 21.6279 86.9759 21.5895 87.0443 21.5211C87.1128 21.4527 87.1512 21.36 87.1513 21.2632V4.36467C87.1513 4.31677 87.1418 4.26933 87.1235 4.22508C87.1051 4.18083 87.0783 4.14062 87.0444 4.10676C87.0105 4.07289 86.9703 4.04603 86.926 4.02772C86.8818 4.0094 86.8343 3.99998 86.7864 4V4ZM109.635 8.95543H106.099C105.935 8.95543 105.791 9.06499 105.748 9.22316L103.608 16.9711H103.557L101.292 9.21779C101.27 9.14208 101.224 9.07559 101.161 9.02829C101.098 8.98099 101.021 8.95542 100.942 8.95543H97.293C97.2135 8.95538 97.1362 8.9813 97.0729 9.02924C97.0095 9.07718 96.9635 9.14451 96.942 9.22098L94.7522 16.9711H94.6759L92.5606 9.22403C92.5395 9.14685 92.4937 9.07873 92.4301 9.03019C92.3665 8.98165 92.2887 8.95538 92.2087 8.95543H88.4953C88.4372 8.95544 88.3799 8.96934 88.3282 8.99597C88.2765 9.0226 88.232 9.06118 88.1983 9.10852C88.1645 9.15585 88.1426 9.21056 88.1343 9.26808C88.126 9.32561 88.1315 9.38429 88.1505 9.43923L92.2754 21.3822C92.3002 21.454 92.3467 21.5162 92.4085 21.5603C92.4703 21.6044 92.5443 21.6281 92.6202 21.6281H96.29C96.3679 21.628 96.4438 21.6031 96.5065 21.5568C96.5693 21.5106 96.6156 21.4455 96.6387 21.3711L99.002 13.7395H99.053L101.466 21.3731C101.489 21.4471 101.536 21.5116 101.598 21.5575C101.661 21.6033 101.736 21.628 101.814 21.6281H105.486C105.641 21.6281 105.78 21.5297 105.831 21.3828L109.979 9.43981C109.998 9.38487 110.004 9.32616 109.996 9.26857C109.988 9.21099 109.966 9.15621 109.932 9.1088C109.898 9.06139 109.854 9.02274 109.802 8.99606C109.75 8.96937 109.693 8.95544 109.635 8.95543V8.95543ZM130.645 4H127.124C127.076 3.99998 127.029 4.0094 126.985 4.02772C126.941 4.04603 126.9 4.07289 126.866 4.10676C126.833 4.14062 126.806 4.18083 126.787 4.22508C126.769 4.26933 126.76 4.31677 126.76 4.36467V21.2632C126.76 21.36 126.798 21.4528 126.866 21.5212C126.935 21.5896 127.028 21.6281 127.124 21.6281H130.645C130.741 21.6281 130.834 21.5896 130.902 21.5212C130.971 21.4528 131.009 21.36 131.009 21.2632V4.36467C131.009 4.31677 131 4.26933 130.982 4.22508C130.963 4.18083 130.936 4.14062 130.902 4.10676C130.869 4.07289 130.828 4.04603 130.784 4.02772C130.74 4.0094 130.692 3.99998 130.645 4V4ZM137.615 4H134.095C133.998 4 133.906 4.03841 133.837 4.10679C133.769 4.17517 133.73 4.26792 133.73 4.36467V21.2632C133.73 21.36 133.769 21.4528 133.837 21.5212C133.906 21.5896 133.998 21.6281 134.095 21.6281H137.615C137.663 21.6281 137.71 21.6186 137.755 21.6003C137.799 21.582 137.839 21.5551 137.873 21.5212C137.907 21.4874 137.934 21.4471 137.952 21.4029C137.971 21.3586 137.98 21.3112 137.98 21.2632V4.36467C137.98 4.31677 137.97 4.26933 137.952 4.22508C137.934 4.18083 137.907 4.14062 137.873 4.10676C137.839 4.07289 137.799 4.04603 137.755 4.02772C137.71 4.0094 137.663 3.99998 137.615 4V4ZM114.793 17.5054C114.539 17.2003 114.347 16.8481 114.22 16.4494C114.094 16.0588 114.03 15.651 114.03 15.2407C114.03 14.8335 114.093 14.4353 114.22 14.0446C114.348 13.6547 114.539 13.3113 114.793 13.0142C115.047 12.7175 115.361 12.4758 115.734 12.2889C116.107 12.1025 116.54 12.009 117.032 12.009C117.507 12.009 117.931 12.1025 118.305 12.2889C118.678 12.4758 118.995 12.7214 119.259 13.0268C119.522 13.3323 119.725 13.6801 119.87 14.0702C120.014 14.4605 120.086 14.8592 120.086 15.2662C120.086 15.6732 120.014 16.0722 119.87 16.4622C119.725 16.8526 119.522 17.2003 119.259 17.5056C118.995 17.8109 118.677 18.057 118.305 18.2435C117.931 18.4304 117.507 18.5235 117.032 18.5235C116.54 18.5235 116.107 18.4304 115.734 18.2435C115.361 18.057 115.047 17.8109 114.793 17.5054V17.5054ZM123.717 8.52212L120.808 8.52154C120.7 8.52156 120.596 8.55641 120.509 8.6209C120.423 8.68539 120.36 8.77606 120.329 8.87939L119.99 10.0279C119.627 9.70943 119.169 9.41093 118.612 9.13348C117.898 8.77737 117.024 8.59918 115.99 8.59918H115.989C115.073 8.59918 114.246 8.77737 113.508 9.13348C112.77 9.48987 112.142 9.97324 111.625 10.584C111.107 11.1946 110.709 11.9031 110.429 12.7087C110.149 13.5147 110.009 14.3588 110.009 15.2408C110.009 16.1231 110.145 16.9711 110.416 17.7855C110.687 18.5996 111.082 19.3164 111.599 19.9358C112.117 20.5551 112.748 21.0514 113.495 21.4243C114.242 21.7973 115.09 21.9842 116.04 21.9842C116.259 21.9842 116.474 21.9721 116.687 21.9489C117.464 21.8843 118.142 21.7096 118.719 21.4218C119.403 21.0808 119.945 20.7093 120.347 20.3088L120.663 21.2824C120.696 21.3827 120.759 21.4701 120.845 21.5321C120.93 21.5941 121.033 21.6275 121.138 21.6275L123.716 21.6281C123.764 21.6281 123.812 21.6186 123.856 21.6003C123.9 21.582 123.94 21.5551 123.974 21.5213C124.008 21.4874 124.035 21.4471 124.053 21.4029C124.072 21.3586 124.081 21.3112 124.081 21.2632V8.88693C124.081 8.7902 124.043 8.69744 123.974 8.62903C123.906 8.56061 123.813 8.52216 123.717 8.52212V8.52212ZM72.6319 8.63487L72.6013 8.62892L72.6488 8.59918C72.5433 8.59918 72.4407 8.60237 72.3388 8.606C72.2546 8.60164 72.1695 8.59918 72.0831 8.59918C71.5337 8.59918 71.0316 8.70308 70.5748 8.90623C70.387 8.96964 70.2037 9.04556 70.026 9.13348C69.3531 9.46927 68.8236 9.83553 68.4341 10.2314L68.1783 9.33344C68.1486 9.22899 68.0856 9.13707 67.9989 9.07163C67.9122 9.00619 67.8066 8.97079 67.698 8.97081L64.9408 8.97037C64.8441 8.97041 64.7513 9.00886 64.6829 9.07727C64.6145 9.14567 64.5761 9.23844 64.576 9.33518V21.2632C64.5761 21.36 64.6145 21.4528 64.683 21.5212C64.7514 21.5896 64.8442 21.6281 64.941 21.6281H68.3848C68.4815 21.628 68.5743 21.5896 68.6427 21.5211C68.711 21.4527 68.7495 21.36 68.7495 21.2632V15.1311C68.7495 14.8774 68.8007 14.5814 68.9023 14.2432C69.0041 13.9049 69.1696 13.5919 69.3985 13.3041C69.6275 13.0165 69.933 12.7711 70.3145 12.568C70.6963 12.3653 71.1669 12.2635 71.7267 12.2635C71.8962 12.2635 72.0706 12.2723 72.2485 12.2889L72.4163 12.3098C72.464 12.3145 72.5121 12.3098 72.558 12.2958C72.6038 12.2819 72.6464 12.2591 72.6835 12.2287C72.7205 12.1983 72.7512 12.1608 72.7737 12.1186C72.7963 12.0763 72.8103 12.03 72.8149 11.9823L72.9548 9.03727C72.9653 8.9411 72.9372 8.8447 72.8767 8.76924C72.8161 8.69379 72.7281 8.64546 72.6319 8.63487V8.63487ZM53.9067 13.8412C53.9235 13.5191 54.0088 13.2092 54.1612 12.9123C54.3132 12.6168 54.5207 12.3533 54.7723 12.1361C55.0269 11.916 55.3233 11.7417 55.6627 11.6146C56.0022 11.4873 56.3752 11.4238 56.7824 11.4238C57.6136 11.4238 58.237 11.6616 58.6526 12.1363C59.0683 12.6114 59.2764 13.1796 59.2764 13.8412H53.9067ZM61.3376 10.3803C60.7774 9.78692 60.1072 9.33315 59.3272 9.01913C58.5465 8.70525 57.6897 8.54839 56.757 8.54839C55.7902 8.54839 54.8907 8.70975 54.0595 9.03161C53.228 9.35419 52.5074 9.80796 51.8963 10.3932C51.2857 10.9784 50.8021 11.6909 50.4462 12.5307C50.0896 13.3705 49.9116 14.308 49.9116 15.3425C49.9116 16.4114 50.0939 17.3618 50.4587 18.1925C50.8236 19.024 51.3243 19.7237 51.9601 20.292C52.5962 20.8606 53.338 21.293 54.1867 21.5899C55.0351 21.8865 55.9342 22.0351 56.8844 22.0351C58.1735 22.0351 59.3057 21.8016 60.2812 21.3352C60.8779 21.0498 61.4032 20.6902 61.8568 20.2556C61.8978 20.2162 61.9305 20.1689 61.953 20.1167C61.9756 20.0645 61.9875 20.0083 61.9881 19.9514C61.9887 19.8946 61.9779 19.8381 61.9564 19.7855C61.935 19.7328 61.9032 19.6849 61.863 19.6447L60.0603 17.8332C59.8954 17.6675 59.6235 17.6603 59.4605 17.8281C59.2211 18.075 58.9393 18.2855 58.6145 18.4597C58.1563 18.7059 57.5967 18.8287 56.9354 18.8287C56.5618 18.8287 56.2012 18.7695 55.8536 18.6506C55.506 18.5322 55.1921 18.3668 54.9122 18.1544C54.6321 17.9425 54.4028 17.6923 54.2251 17.4037C54.0471 17.1155 53.9406 16.7931 53.9067 16.4368H63.0936C63.1105 16.2762 63.1189 16.1147 63.1185 15.9532V15.4444C63.1185 14.359 62.9617 13.3919 62.6479 12.5436C62.3336 11.6953 61.8974 10.9744 61.3376 10.3804V10.3803ZM143.556 13.8412C143.573 13.5191 143.658 13.2092 143.811 12.9123C143.963 12.6168 144.17 12.3533 144.422 12.1361C144.676 11.916 144.973 11.7417 145.312 11.6146C145.652 11.4873 146.025 11.4238 146.432 11.4238C147.263 11.4238 147.886 11.6616 148.302 12.1363C148.718 12.6114 148.926 13.1796 148.926 13.8412H143.556ZM150.987 10.3803C150.427 9.78692 149.757 9.33315 148.977 9.01913C148.196 8.70525 147.339 8.54839 146.406 8.54839C145.44 8.54839 144.54 8.70975 143.709 9.03161C142.878 9.35419 142.157 9.80796 141.546 10.3932C140.935 10.9784 140.452 11.6909 140.096 12.5307C139.739 13.3705 139.561 14.308 139.561 15.3425C139.561 16.4114 139.743 17.3618 140.108 18.1925C140.473 19.024 140.974 19.7237 141.61 20.292C142.246 20.8606 142.988 21.293 143.836 21.5899C144.684 21.8865 145.583 22.0351 146.534 22.0351C147.823 22.0351 148.955 21.8016 149.931 21.3352C150.527 21.0498 151.052 20.6902 151.506 20.2556C151.547 20.2161 151.58 20.1689 151.603 20.1167C151.625 20.0645 151.637 20.0083 151.638 19.9514C151.638 19.8946 151.627 19.8381 151.606 19.7855C151.584 19.7328 151.553 19.6849 151.513 19.6447L149.71 17.8332C149.545 17.6675 149.273 17.6603 149.11 17.8281C148.871 18.075 148.589 18.2855 148.264 18.4597C147.806 18.7059 147.246 18.8287 146.585 18.8287C146.211 18.8287 145.851 18.7695 145.503 18.6506C145.155 18.5322 144.842 18.3668 144.562 18.1544C144.282 17.9425 144.053 17.6923 143.875 17.4037C143.696 17.1155 143.59 16.7931 143.556 16.4368H152.743C152.76 16.2762 152.768 16.1147 152.768 15.9532V15.4444C152.768 14.359 152.611 13.3919 152.297 12.5436C151.983 11.6953 151.547 10.9744 150.987 10.3804" fill="#4A4656"/>
<path d="M8.61501 0.0515147C8.52557 0.0177818 8.43082 0.000334894 8.33523 0H0.57058C0.419253 0 0.274124 0.0601145 0.167119 0.167119C0.0601145 0.274124 0 0.419253 0 0.57058L0 8.66681L8.61501 0.0515147ZM0.167169 25.8328C0.220075 25.8859 0.282953 25.928 0.352185 25.9567C0.421418 25.9854 0.495639 26.0001 0.57058 26H8.09609C8.24738 26 8.39246 25.9399 8.49946 25.8329C8.60645 25.7259 8.66659 25.5809 8.66667 25.4296V17.3335L0.167169 25.8328Z" fill="#4A4656"/>
<path d="M17.3398 8.66797V25.9285C17.3568 25.9362 17.374 25.9433 17.3915 25.9498L26.0065 17.3346L17.3398 8.66797Z" fill="#4A4656"/>
<path d="M8.66667 17.3335V0.073862C8.64954 0.0660259 8.63271 0.0580448 8.61501 0.0515147L0 8.66681V25.4296C0 25.5872 0.0638492 25.7298 0.167169 25.833L8.66667 17.3335ZM25.9997 17.3335V0.57058C25.9997 0.49567 25.985 0.421489 25.9563 0.352273C25.9277 0.283057 25.8857 0.220162 25.8327 0.167179C25.7798 0.114196 25.7169 0.072162 25.6477 0.0434773C25.5785 0.0147927 25.5043 1.90539e-05 25.4294 0H17.9039C17.7527 -1.22247e-07 17.6077 0.0600148 17.5007 0.166862C17.3937 0.27371 17.3335 0.418653 17.3333 0.569855V8.66681L25.9997 17.3335ZM25.9997 17.3335L17.3848 25.9486C17.4735 25.9819 17.568 26 17.6646 26H25.4293C25.5806 26 25.7257 25.9399 25.8327 25.8329C25.9397 25.726 25.9998 25.5809 25.9999 25.4296L25.9997 17.3335Z" fill="#4A4656"/>
<path d="M8.66117 17.3339H8.66016H8.66117ZM17.3267 8.66699V8.66714V8.66699Z" fill="#4A4656"/>
<path d="M8.89451 0.233591C8.82665 0.166514 8.74726 0.112198 8.66016 0.0732422V17.3329L17.0923 25.765C17.1607 25.8332 17.2405 25.8872 17.3267 25.9265V8.66604L8.89451 0.233591Z" fill="#4A4656"/>
</svg>
