<svg width="26" height="25" viewBox="0 0 26 25" fill="none" xmlns="http://www.w3.org/2000/svg">
<path d="M22.6519 9.32763L25.9664 12.5294C25.9822 12.5446 25.993 12.5641 25.9976 12.5855C26.0022 12.6069 26.0002 12.6292 25.992 12.6495C25.9838 12.6697 25.9697 12.6871 25.9515 12.6993C25.9334 12.7115 25.912 12.718 25.8901 12.718H22.6519V25H16.5099V17.1053H9.4905V25H3.34849V12.7193H0.109901C0.0880179 12.7193 0.0666216 12.7128 0.0484638 12.7006C0.030306 12.6884 0.016217 12.6711 0.0080085 12.6508C-0.000200029 12.6305 -0.00215272 12.6082 0.00240154 12.5868C0.0069558 12.5654 0.0178087 12.5459 0.0335648 12.5307L13.0002 0L18.7035 5.51184V3.07018H22.6519V9.32763Z" fill="url(#paint0_linear_2_1506)"/>
<defs>
<linearGradient id="paint0_linear_2_1506" x1="-1.1003e-07" y1="13" x2="26" y2="13" gradientUnits="userSpaceOnUse">
<stop stop-color="#FD5F0E"/>
<stop offset="1" stop-color="#EF126D"/>
</linearGradient>
</defs>
</svg>
