<svg width="98" height="77" viewBox="0 0 98 77" fill="none" xmlns="http://www.w3.org/2000/svg">
<path d="M2.34723 65.796C2.41923 66.12 2.56923 66.444 2.79723 66.768C3.03723 67.08 3.36123 67.344 3.76923 67.56C4.18923 67.764 4.72323 67.866 5.37123 67.866C6.29523 67.866 6.97923 67.65 7.42323 67.218C7.86723 66.786 8.08923 66.276 8.08923 65.688C8.08923 65.22 7.96323 64.836 7.71123 64.536C7.45923 64.236 7.11723 63.99 6.68523 63.798C6.25323 63.594 5.76723 63.414 5.22723 63.258C4.74723 63.126 4.26723 62.982 3.78723 62.826C3.31923 62.658 2.89323 62.454 2.50923 62.214C2.12523 61.962 1.81923 61.638 1.59123 61.242C1.36323 60.846 1.24923 60.354 1.24923 59.766C1.24923 59.058 1.41723 58.446 1.75323 57.93C2.08923 57.402 2.56323 56.994 3.17523 56.706C3.78723 56.418 4.50123 56.274 5.31723 56.274C6.02523 56.274 6.64323 56.376 7.17123 56.58C7.69923 56.784 8.13723 57.072 8.48523 57.444C8.84523 57.804 9.10923 58.224 9.27723 58.704L7.99923 59.19C7.91523 58.914 7.75323 58.65 7.51323 58.398C7.27323 58.134 6.96123 57.918 6.57723 57.75C6.19323 57.582 5.75523 57.498 5.26323 57.498C4.78323 57.498 4.34523 57.582 3.94923 57.75C3.56523 57.918 3.25923 58.158 3.03123 58.47C2.80323 58.782 2.68923 59.16 2.68923 59.604C2.68923 60.084 2.82123 60.468 3.08523 60.756C3.36123 61.032 3.72123 61.26 4.16523 61.44C4.62123 61.608 5.11923 61.77 5.65923 61.926C6.15123 62.082 6.62523 62.25 7.08123 62.43C7.54923 62.61 7.96323 62.832 8.32323 63.096C8.69523 63.36 8.98923 63.69 9.20523 64.086C9.42123 64.482 9.52923 64.968 9.52923 65.544C9.52923 66.18 9.37923 66.774 9.07923 67.326C8.77923 67.866 8.32323 68.304 7.71123 68.64C7.11123 68.964 6.33723 69.126 5.38923 69.126C4.59723 69.126 3.90123 69.006 3.30123 68.766C2.70123 68.514 2.20923 68.178 1.82523 67.758C1.44123 67.338 1.17723 66.858 1.03323 66.318L2.34723 65.796ZM15.6712 69.126C14.7952 69.126 14.0272 68.934 13.3672 68.55C12.7072 68.166 12.1912 67.632 11.8192 66.948C11.4592 66.252 11.2792 65.448 11.2792 64.536C11.2792 63.612 11.4592 62.802 11.8192 62.106C12.1912 61.398 12.7072 60.852 13.3672 60.468C14.0272 60.072 14.7952 59.874 15.6712 59.874C16.5952 59.874 17.4052 60.09 18.1012 60.522C18.7972 60.942 19.3012 61.53 19.6132 62.286L18.3712 62.718C18.1912 62.238 17.8612 61.86 17.3812 61.584C16.9132 61.296 16.3672 61.152 15.7432 61.152C15.1312 61.152 14.5972 61.29 14.1412 61.566C13.6972 61.842 13.3492 62.232 13.0972 62.736C12.8572 63.24 12.7372 63.834 12.7372 64.518C12.7372 65.526 13.0072 66.336 13.5472 66.948C14.0872 67.548 14.8072 67.848 15.7072 67.848C16.3192 67.848 16.8652 67.71 17.3452 67.434C17.8252 67.158 18.1792 66.786 18.4072 66.318L19.6312 66.75C19.3072 67.494 18.7972 68.076 18.1012 68.496C17.4052 68.916 16.5952 69.126 15.6712 69.126ZM21.8391 60H23.0811L23.1531 61.314C23.3931 60.99 23.6811 60.714 24.0171 60.486C24.3651 60.258 24.7431 60.102 25.1511 60.018C25.5711 59.922 26.0151 59.916 26.4831 60V61.35C25.9791 61.254 25.5231 61.254 25.1151 61.35C24.7191 61.446 24.3771 61.626 24.0891 61.89C23.8011 62.154 23.5791 62.49 23.4231 62.898C23.2671 63.294 23.1891 63.756 23.1891 64.284V69H21.8391V60ZM32.0377 69.126C31.1857 69.126 30.4237 68.94 29.7517 68.568C29.0797 68.196 28.5517 67.668 28.1677 66.984C27.7837 66.288 27.5917 65.466 27.5917 64.518C27.5917 63.558 27.7837 62.73 28.1677 62.034C28.5637 61.338 29.0977 60.804 29.7697 60.432C30.4537 60.06 31.2217 59.874 32.0737 59.874C32.9257 59.874 33.6877 60.06 34.3597 60.432C35.0437 60.804 35.5777 61.338 35.9617 62.034C36.3577 62.718 36.5557 63.534 36.5557 64.482C36.5557 65.442 36.3577 66.27 35.9617 66.966C35.5657 67.662 35.0257 68.196 34.3417 68.568C33.6577 68.94 32.8897 69.126 32.0377 69.126ZM32.0197 67.848C32.5477 67.848 33.0457 67.734 33.5137 67.506C33.9817 67.266 34.3597 66.9 34.6477 66.408C34.9477 65.904 35.0977 65.268 35.0977 64.5C35.0977 63.72 34.9537 63.084 34.6657 62.592C34.3777 62.1 33.9997 61.74 33.5317 61.512C33.0757 61.272 32.5837 61.152 32.0557 61.152C31.5277 61.152 31.0357 61.272 30.5797 61.512C30.1237 61.74 29.7517 62.106 29.4637 62.61C29.1877 63.102 29.0497 63.732 29.0497 64.5C29.0497 65.28 29.1877 65.916 29.4637 66.408C29.7397 66.9 30.0997 67.266 30.5437 67.506C30.9997 67.734 31.4917 67.848 32.0197 67.848ZM38.7669 56.04H40.1169V69H38.7669V56.04ZM42.8626 56.04H44.2126V69H42.8626V56.04ZM56.3052 56.4C57.6972 56.4 58.8852 56.658 59.8692 57.174C60.8652 57.678 61.6272 58.404 62.1552 59.352C62.6952 60.3 62.9652 61.428 62.9652 62.736C62.9652 64.032 62.6952 65.148 62.1552 66.084C61.6272 67.02 60.8652 67.74 59.8692 68.244C58.8852 68.748 57.6972 69 56.3052 69H52.1472V56.4H56.3052ZM56.3052 67.74C58.0212 67.74 59.3172 67.302 60.1932 66.426C61.0692 65.55 61.5072 64.32 61.5072 62.736C61.5072 61.14 61.0692 59.898 60.1932 59.01C59.3172 58.11 58.0212 57.66 56.3052 57.66H53.5872V67.74H56.3052ZM69.0045 69.126C68.1525 69.126 67.3905 68.94 66.7185 68.568C66.0465 68.196 65.5185 67.668 65.1345 66.984C64.7505 66.288 64.5585 65.466 64.5585 64.518C64.5585 63.558 64.7505 62.73 65.1345 62.034C65.5305 61.338 66.0645 60.804 66.7365 60.432C67.4205 60.06 68.1885 59.874 69.0405 59.874C69.8925 59.874 70.6545 60.06 71.3265 60.432C72.0105 60.804 72.5445 61.338 72.9285 62.034C73.3245 62.718 73.5225 63.534 73.5225 64.482C73.5225 65.442 73.3245 66.27 72.9285 66.966C72.5325 67.662 71.9925 68.196 71.3085 68.568C70.6245 68.94 69.8565 69.126 69.0045 69.126ZM68.9865 67.848C69.5145 67.848 70.0125 67.734 70.4805 67.506C70.9485 67.266 71.3265 66.9 71.6145 66.408C71.9145 65.904 72.0645 65.268 72.0645 64.5C72.0645 63.72 71.9205 63.084 71.6325 62.592C71.3445 62.1 70.9665 61.74 70.4985 61.512C70.0425 61.272 69.5505 61.152 69.0225 61.152C68.4945 61.152 68.0025 61.272 67.5465 61.512C67.0905 61.74 66.7185 62.106 66.4305 62.61C66.1545 63.102 66.0165 63.732 66.0165 64.5C66.0165 65.28 66.1545 65.916 66.4305 66.408C66.7065 66.9 67.0665 67.266 67.5105 67.506C67.9665 67.734 68.4585 67.848 68.9865 67.848ZM78.6899 69H77.4659L74.6399 60H76.0079L78.0779 67.326L80.3999 60H81.6239L83.9099 67.308L85.9619 60H87.2939L84.4859 69H83.2439L80.9759 62.016L78.6899 69ZM89.1282 60H90.3702L90.4422 61.278C90.7302 60.834 91.1082 60.492 91.5762 60.252C92.0442 60 92.5902 59.874 93.2142 59.874C93.8982 59.874 94.4982 60.024 95.0142 60.324C95.5302 60.612 95.9322 61.05 96.2202 61.638C96.5082 62.214 96.6522 62.94 96.6522 63.816V69H95.3022V63.978C95.3022 63.042 95.0982 62.334 94.6902 61.854C94.2942 61.362 93.7182 61.116 92.9622 61.116C92.1822 61.116 91.5702 61.374 91.1262 61.89C90.6942 62.406 90.4782 63.168 90.4782 64.176V69H89.1282V60Z" fill="#666270"/>
<path d="M50.2 1H47.8C41.8353 1 37 5.83532 37 11.8V26.2C37 32.1647 41.8353 37 47.8 37H50.2C56.1647 37 61 32.1647 61 26.2V11.8C61 5.83532 56.1647 1 50.2 1Z" stroke="#666270" stroke-width="2" stroke-linecap="round" stroke-linejoin="round"/>
<path d="M51.3996 11.8C51.3996 12.4365 51.1468 13.047 50.6967 13.4971C50.2466 13.9471 49.6361 14.2 48.9996 14.2C48.3631 14.2 47.7526 13.9471 47.3026 13.4971C46.8525 13.047 46.5996 12.4365 46.5996 11.8V9.4C46.5996 8.76348 46.8525 8.15303 47.3026 7.70294C47.7526 7.25286 48.3631 7 48.9996 7C49.6361 7 50.2466 7.25286 50.6967 7.70294C51.1468 8.15303 51.3996 8.76348 51.3996 9.4V11.8Z" stroke="#666270" stroke-width="2" stroke-linecap="round" stroke-linejoin="round"/>
</svg>
